<svg width="47" height="55" viewBox="0 0 47 55" fill="none" xmlns="http://www.w3.org/2000/svg">
<path d="M4 11.9358C4 10.4693 5.06024 9.21774 6.5068 8.97665L15.3649 7.50031C15.7835 7.43053 16.1826 7.27271 16.5358 7.03728L20.3359 4.50385C21.3436 3.83205 22.6564 3.83205 23.6641 4.50385L27.4642 7.03728C27.8174 7.27271 28.2165 7.43053 28.6351 7.50031L37.4932 8.97665C38.9398 9.21774 40 10.4693 40 11.9358V31.7789C40 37.1139 37.1663 42.0474 32.5581 44.7356L23.5116 50.0127C22.5775 50.5576 21.4225 50.5576 20.4884 50.0127L11.4419 44.7356C6.83367 42.0474 4 37.1139 4 31.7789V11.9358Z" fill="#384C53"/>
<path d="M40 11.9358C39.9998 10.5611 39.0681 9.37459 37.7598 9.03312L37.4932 8.97665L28.6351 7.50031C28.2689 7.43922 27.9172 7.31082 27.5986 7.12199L27.4642 7.03728L23.6641 4.50385C22.6564 3.83205 21.3436 3.83205 20.3359 4.50385L16.5358 7.03728L16.4014 7.12199C16.0828 7.31082 15.7311 7.43922 15.3649 7.50031L6.5068 8.97665C5.06024 9.21774 4 10.4693 4 11.9358V31.7789L4.00781 32.2782C4.17851 37.4203 6.97779 42.1315 11.4419 44.7356L20.4884 50.0127C21.3641 50.5235 22.434 50.5553 23.334 50.1083L23.5116 50.0127L32.5581 44.7356C37.0222 42.1315 39.8215 37.4203 39.9922 32.2782L40 31.7789V11.9358ZM44 31.7792C43.9999 38.5368 40.4103 44.7854 34.5732 48.1903L25.5273 53.4677C23.4159 54.6994 20.8204 54.7377 18.6787 53.5829L18.4727 53.4677L9.42676 48.1903C3.77209 44.8918 0.226859 38.9245 0.0107422 32.411L0 31.7792V11.9355C0.000176356 8.51375 2.47441 5.5937 5.84961 5.03117L14.4951 3.58976L18.1172 1.1757L18.3398 1.03312C20.5845 -0.344374 23.4155 -0.344373 25.6602 1.03312L25.8828 1.1757L29.5039 3.58976L38.1504 5.03117L38.4648 5.09074C41.6783 5.7768 43.9998 8.62079 44 11.9355V31.7792Z" fill="#384C53"/>
<path d="M4 11.9358C4 10.4693 5.06024 9.21774 6.5068 8.97665L15.3649 7.50031C15.7835 7.43053 16.1826 7.27271 16.5358 7.03728L20.3359 4.50385C21.3436 3.83205 22.6564 3.83205 23.6641 4.50385L27.4642 7.03728C27.8174 7.27271 28.2165 7.43053 28.6351 7.50031L37.4932 8.97665C38.9398 9.21774 40 10.4693 40 11.9358V31.7789C40 37.1139 37.1663 42.0474 32.5581 44.7356L26.031 48.5431C23.5401 49.9961 20.4599 49.9961 17.969 48.543L11.4419 44.7356C6.83367 42.0474 4 37.1139 4 31.7789V11.9358Z" fill="#384C53"/>
<path d="M28.1416 10.4599C27.4091 10.3378 26.7066 10.0807 26.0693 9.70304L25.7998 9.53312L22 6.99992L18.2002 9.53312C17.5821 9.94518 16.8934 10.239 16.1699 10.3993L15.8584 10.4599L7 11.9355V31.7792C7.00011 36.047 9.26674 39.9939 12.9531 42.1444L19.4805 45.9521L19.7764 46.1112C21.2764 46.8564 23.0599 46.8035 24.5195 45.9521L31.0469 42.1444L31.3877 41.9374C34.8723 39.7468 36.9999 35.9138 37 31.7792V11.9355L28.1416 10.4599ZM40 31.7789L39.9922 32.2782C39.8215 37.4203 37.0222 42.1315 32.5581 44.7356L26.031 48.5431L25.7959 48.6747C23.4271 49.952 20.5729 49.952 18.2041 48.6747L17.969 48.543L11.4419 44.7356C6.97779 42.1315 4.17851 37.4203 4.00781 32.2782L4 31.7789V11.9358C4.00017 10.5611 4.9319 9.3746 6.24023 9.03312L6.5068 8.97665L15.3649 7.50031C15.7311 7.43922 16.0828 7.31082 16.4014 7.12199L16.5358 7.03728L20.3359 4.50385C21.3436 3.83205 22.6564 3.83205 23.6641 4.50385L27.4642 7.03728C27.8174 7.27271 28.2165 7.43053 28.6351 7.50031L37.4932 8.97665C38.9398 9.21774 40 10.4693 40 11.9358V31.7789Z" fill="white"/>
<path d="M29.5 23.3945L31.8091 31.5855L40 33.8945L31.8091 36.2036L29.5 44.3945L27.1909 36.2036L19 33.8945L27.1909 31.5855L29.5 23.3945Z" fill="#384C53"/>
<path d="M29.5 21.3945C30.3955 21.3945 31.1817 21.9898 31.4248 22.8516L33.4297 29.9639L40.543 31.9697C41.4048 32.2128 42 32.9991 42 33.8945C42 34.79 41.4048 35.5762 40.543 35.8193L33.4297 37.8242L31.4248 44.9375C31.1817 45.7993 30.3955 46.3945 29.5 46.3945C28.6045 46.3945 27.8183 45.7993 27.5752 44.9375L25.5693 37.8242L18.457 35.8193C17.5952 35.5762 17 34.79 17 33.8945C17 32.9991 17.5952 32.2128 18.457 31.9697L25.5693 29.9639L27.5752 22.8516L27.627 22.6934C27.9169 21.9178 28.6604 21.3945 29.5 21.3945ZM27.1909 31.5855L19 33.8945L27.1909 36.2036L29.5 44.3945L31.8091 36.2036L40 33.8945L31.8091 31.5855L29.5 23.3945L27.1909 31.5855Z" fill="white"/>
<path d="M38.5 37.3945L39.9294 42.4651L45 43.8945L39.9294 45.3239L38.5 50.3945L37.0706 45.3239L32 43.8945L37.0706 42.4651L38.5 37.3945Z" fill="#384C53"/>
<path d="M38.5 35.3945C39.3955 35.3945 40.1817 35.9898 40.4248 36.8516L41.5498 40.8438L45.543 41.9697L45.7012 42.0215C46.4768 42.3114 47 43.055 47 43.8945C47 44.79 46.4048 45.5762 45.543 45.8193L41.5498 46.9443L40.4248 50.9375C40.1817 51.7993 39.3955 52.3945 38.5 52.3945C37.6045 52.3945 36.8183 51.7993 36.5752 50.9375L35.4492 46.9443L31.457 45.8193C30.5952 45.5762 30 44.79 30 43.8945C30 42.9991 30.5952 42.2128 31.457 41.9697L35.4492 40.8438L36.5752 36.8516L36.627 36.6934C36.9169 35.9178 37.6604 35.3945 38.5 35.3945ZM37.0706 42.4651L32 43.8945L37.0706 45.3239L38.5 50.3945L39.9294 45.3239L45 43.8945L39.9294 42.4651L38.5 37.3945L37.0706 42.4651Z" fill="white"/>
</svg>
