<svg width="32" height="31" viewBox="0 0 32 31" fill="none" xmlns="http://www.w3.org/2000/svg">
<path d="M0.430618 14.1454C0.0815495 12.8315 0.854655 11.481 2.1574 11.1289C3.46014 10.7769 4.7992 11.5566 5.14826 12.8705L8.94053 27.1446C9.2896 28.4585 8.5165 29.809 7.21375 30.1611C5.91101 30.5131 4.57195 29.7334 4.22289 28.4195L0.430618 14.1454Z" fill="#384C53"/>
<path d="M4.31791 16.0895C3.99935 14.8905 4.46514 13.6191 5.48022 12.9171L20.4967 0.760669C22.1486 -0.381778 24.4242 0.466285 24.9426 2.41754L31.2459 26.1433C31.7643 28.0946 30.214 29.9766 28.2171 29.8202L9.20497 26.9371C7.97784 26.841 6.94419 25.9749 6.62563 24.7758L4.31791 16.0895Z" fill="#384C53"/>
</svg>
