<svg width="1287" height="1287" viewBox="0 0 1287 1287" fill="none" xmlns="http://www.w3.org/2000/svg">
<path fill="currentColor" d="M615.669 10.6255C631.559 -3.4347 655.441 -3.4347 671.332 10.6255L736.366 68.1684C747.703 78.1993 763.561 81.3536 777.873 76.4246L859.978 48.1495C880.039 41.2407 902.103 50.3798 911.404 69.4508L949.467 147.501C956.102 161.107 969.546 170.09 984.655 171.013L1071.33 176.31C1092.51 177.605 1109.4 194.492 1110.69 215.67L1115.99 302.345C1116.91 317.455 1125.89 330.898 1139.5 337.533L1217.55 375.597C1236.62 384.897 1245.76 406.961 1238.85 427.022L1210.58 509.127C1205.65 523.44 1208.8 539.297 1218.83 550.634L1276.37 615.669C1290.43 631.559 1290.43 655.441 1276.37 671.332L1218.83 736.366C1208.8 747.703 1205.65 763.561 1210.58 777.873L1238.85 859.978C1245.76 880.039 1236.62 902.103 1217.55 911.404L1139.5 949.467C1125.89 956.102 1116.91 969.546 1115.99 984.655L1110.69 1071.33C1109.4 1092.51 1092.51 1109.4 1071.33 1110.69L984.655 1115.99C969.546 1116.91 956.102 1125.89 949.467 1139.5L911.404 1217.55C902.103 1236.62 880.039 1245.76 859.978 1238.85L777.873 1210.58C763.561 1205.65 747.703 1208.8 736.366 1218.83L671.332 1276.37C655.441 1290.43 631.559 1290.43 615.669 1276.37L550.634 1218.83C539.297 1208.8 523.44 1205.65 509.127 1210.58L427.022 1238.85C406.961 1245.76 384.897 1236.62 375.597 1217.55L337.533 1139.5C330.898 1125.89 317.455 1116.91 302.345 1115.99L215.67 1110.69C194.492 1109.4 177.605 1092.51 176.31 1071.33L171.013 984.655C170.09 969.546 161.107 956.102 147.501 949.467L69.4508 911.404C50.3798 902.103 41.2407 880.039 48.1495 859.978L76.4246 777.873C81.3536 763.561 78.1993 747.703 68.1683 736.366L10.6255 671.332C-3.4347 655.441 -3.4347 631.559 10.6255 615.669L68.1684 550.634C78.1993 539.297 81.3536 523.44 76.4246 509.127L48.1495 427.022C41.2407 406.961 50.3798 384.897 69.4508 375.597L147.501 337.533C161.107 330.898 170.09 317.455 171.013 302.345L176.31 215.67C177.605 194.492 194.492 177.605 215.67 176.31L302.345 171.013C317.455 170.09 330.898 161.107 337.533 147.501L375.597 69.4508C384.897 50.3798 406.961 41.2407 427.022 48.1495L509.127 76.4246C523.44 81.3536 539.297 78.1993 550.634 68.1683L615.669 10.6255Z"/>
</svg>
