<svg width="63" height="47" viewBox="0 0 63 47" fill="none" xmlns="http://www.w3.org/2000/svg">
<path d="M63 23.5002C62.9999 25.9757 60.9851 27.9826 58.5 27.9828H15.363L26.7732 39.3487L26.9324 39.516C28.5284 41.2756 28.4757 43.9915 26.7732 45.6873C25.0708 47.3832 22.3444 47.4357 20.5779 45.8459L20.4099 45.6873L1.31803 26.6695C-0.439342 24.919 -0.439342 22.0814 1.31803 20.3309L20.4099 1.31304L20.5779 1.15351C22.3444 -0.436038 25.0709 -0.382696 26.7732 1.31304C28.4755 3.00896 28.5286 5.72482 26.9324 7.48435L26.7732 7.65167L15.363 19.0176H58.5C60.9852 19.0177 63 21.0246 63 23.5002Z" fill="#384C53"/>
</svg>
