<svg width="53" height="57" viewBox="0 0 53 57" fill="none" xmlns="http://www.w3.org/2000/svg">
<path d="M5.86696 31.7018L2.0846 9.00762C2.06196 8.87175 2.06727 8.73461 2.09993 8.6058C2.14384 8.43262 2.2372 8.27451 2.37855 8.15484C4.28318 6.54218 9.42581 3.61484 15 2.5C22.5 1 28.5 8.5 35 7C38.9793 6.0817 42.2364 4.32401 44.1438 3.02656C44.775 2.5972 45.6957 2.9196 45.8545 3.66629L50.4482 25.2565C50.4822 25.4164 50.4812 25.5846 50.4094 25.7315C49.8028 26.9735 46.8803 29.2495 39 30C28.5 31 29 26.5 19.5 27.5C14.5663 28.0193 10.9109 30.2525 8.72532 32.3938C8.05376 33.0518 6.37202 32.7804 5.9516 31.9566C5.91085 31.8767 5.88195 31.7917 5.86696 31.7018Z" fill="#384C53"/>
<path d="M10 56.5L2 8M19.5 27.5C14.5663 28.0193 10.9109 30.2525 8.72532 32.3938C7.98867 33.1155 6.03651 32.719 5.86696 31.7018L2.0846 9.00762C2.03151 8.68906 2.13208 8.36352 2.37855 8.15484C4.28318 6.54218 9.42581 3.61484 15 2.5C22.5 1 28.5 8.5 35 7C38.9793 6.08169 42.2364 4.32401 44.1438 3.02656C44.775 2.5972 45.6957 2.9196 45.8545 3.66629L50.4482 25.2565C50.4822 25.4164 50.4812 25.5846 50.4094 25.7315C49.8028 26.9735 46.8803 29.2495 39 30C28.5 31 29 26.5 19.5 27.5Z" stroke="#384C53" stroke-width="4"/>
</svg>
