<svg width="49" height="63" viewBox="0 0 49 63" fill="none" xmlns="http://www.w3.org/2000/svg">
<path d="M21.4839 0.796183C22.0347 0.0627295 23.0151 -0.199953 23.8588 0.159844L28.2802 2.0453C28.7131 2.22995 29.1975 2.25533 29.6475 2.11696L34.2417 0.703989C35.1184 0.434355 36.0659 0.798071 36.537 1.58508L39.0057 5.70925C39.2475 6.11314 39.6244 6.4184 40.0698 6.57091L44.6171 8.1282C45.4848 8.42538 46.0376 9.27657 45.9561 10.1902L45.5292 14.9778C45.4874 15.4466 45.613 15.9152 45.8836 16.3003L48.6471 20.233C49.1745 20.9835 49.1214 21.997 48.5184 22.6883L45.359 26.3106C45.0496 26.6653 44.8758 27.1182 44.8683 27.5888L44.7924 32.3948C44.778 33.312 44.1392 34.1007 43.2452 34.3055L38.56 35.379C38.1012 35.4841 37.6944 35.7483 37.4117 36.1247L34.5254 39.9682C33.9746 40.7017 32.9943 40.9644 32.1506 40.6046L27.7292 38.7191C27.2962 38.5345 26.8118 38.5091 26.3619 38.6474L21.7677 40.0604C20.891 40.3301 19.9435 39.9663 19.4724 39.1793L17.0037 35.0552C16.7619 34.6513 16.3849 34.346 15.9396 34.1935L11.3923 32.6362C10.5245 32.339 9.97176 31.4878 10.0532 30.5742L10.4801 25.7866C10.5219 25.3178 10.3964 24.8493 10.1258 24.4641L7.36225 20.5314C6.8349 19.7809 6.88801 18.7674 7.49093 18.0761L10.6504 14.4538C10.9598 14.0991 11.1336 13.6462 11.141 13.1756L11.2169 8.36957C11.2314 7.45245 11.8701 6.66371 12.7642 6.45886L17.4494 5.38542C17.9082 5.2803 18.315 5.01612 18.5977 4.63971L21.4839 0.796183Z" fill="#384C53"/>
<path d="M21.9174 33.102C21.9174 32.5498 22.3651 32.1021 22.9174 32.1021L31.876 32.1021C32.4283 32.1021 32.876 32.5498 32.876 33.1021L32.876 59.4719C32.876 60.4787 31.556 60.8544 31.0259 59.9984L28.2439 55.5068C27.8527 54.8754 26.934 54.8756 26.5433 55.5073L23.7678 59.9941C23.238 60.8506 21.9174 60.4752 21.9174 59.468L21.9174 33.102Z" fill="#384C53"/>
<path d="M15.1039 28.1324C15.38 27.6541 15.9916 27.4902 16.4699 27.7664L23.6169 31.8927C24.0952 32.1688 24.259 32.7804 23.9829 33.2587L10.756 56.1683C10.2437 57.0557 8.88701 56.69 8.89001 55.6654L8.9041 50.8528C8.90636 50.0802 8.06888 49.597 7.40109 49.9856L3.24813 52.4027C2.36229 52.9182 1.36662 51.926 1.87909 51.0384L15.1039 28.1324Z" fill="#384C53"/>
<path d="M22.772 8.08936C23.4697 6.99929 24.8387 6.57568 26.0172 7.05029L26.2496 7.15771C27.6095 7.86206 29.1924 7.98461 30.6382 7.50635L30.9254 7.40283C32.1304 6.93114 33.4862 7.39291 34.1607 8.46924L34.2867 8.69287C34.9728 10.0618 36.1808 11.0912 37.6314 11.5542L37.9244 11.6392C39.1765 11.9658 40.0025 13.1366 39.9156 14.4038L39.8853 14.6587C39.6357 16.1695 40.0083 17.7127 40.9097 18.9399L41.0972 19.1812C41.9184 20.1816 41.8982 21.6143 41.0826 22.5884L40.9088 22.7769C39.8189 23.8524 39.2133 25.3196 39.2213 26.8423L39.231 27.147C39.3074 28.439 38.4488 29.5863 37.2164 29.895L36.9654 29.9458C35.4514 30.1753 34.0991 31.0061 33.2105 32.2427L33.0386 32.4956C32.341 33.5854 30.9728 34.008 29.7945 33.5337L29.5611 33.4272C28.2014 32.723 26.6191 32.6006 25.1734 33.0786L24.8853 33.1821C23.6803 33.6537 22.3244 33.192 21.65 32.1157L21.525 31.8921C20.8388 30.523 19.63 29.4938 18.1793 29.0308L17.8863 28.9458C16.6338 28.6191 15.8078 27.4477 15.8951 26.1802L15.9254 25.9263C16.175 24.4155 15.8023 22.8723 14.9009 21.645L14.7134 21.4038C13.8923 20.4034 13.9126 18.9707 14.7281 17.9966L14.9019 17.8081C15.9918 16.7325 16.5974 15.2654 16.5894 13.7427L16.5797 13.437C16.5035 12.1452 17.3621 10.9987 18.5943 10.6899L18.8453 10.6392C20.3592 10.4097 21.7115 9.57878 22.6002 8.34229L22.772 8.08936Z" fill="#384C53" stroke="white" stroke-width="3"/>
</svg>
